<svg xmlns="http://www.w3.org/2000/svg" width="350" height="100" preserveAspectRatio="xMidYMid meet"  fill="#e84141" stroke="#0b0bd5" stroke-width=".1" xmlns:v="https://vecta.io/nano"><path d="M243 39v37h8V2h-8v37zm56.9-34.2c-9.7 5.1-13.5 16.5-12.6 38.2.8 19.5 3.8 26.4 13.5 31.2 3.9 1.9 6.2 2.3 14.2 2.3 8.3 0 10.2-.4 15-2.7 6.6-3.3 9.4-7.1 11.4-15.8 2.1-8.7 2.1-29.6.1-37.5C337.9 6.8 331.1 2 314.9 2c-8.7 0-10.2.3-15 2.8zm22 5.2c4.9 1.4 8.8 5.5 10.7 11.3 1.3 4 1.6 7.9 1.2 20.1-.3 13.8-.6 15.5-2.8 19.5-3.3 5.9-7.7 8.1-16 8.1-11.6 0-16.1-4.3-18.2-17.7-1.2-7.6-.5-24.8 1.2-30.5 2.8-9.5 12.8-14 23.9-10.8zM180.5 23.7c-7.4.8-9.8 1.6-13 4.5-5.1 4.4-6.9 11.3-6.3 24.7.5 11.7 1.7 15.2 6.8 19.4 3.8 3.2 8.3 4.2 18.2 4.1 13.6-.2 18.8-5.1 20.8-19.5 1.2-8.4.1-18.8-2.4-23.6-2.1-4.2-7-8.1-10.9-8.7-6-.9-10.2-1.2-13.2-.9zm10.7 7.4c5.4 1.5 7.1 5.2 7.6 17 .7 16.4-2.3 21.1-13.6 21.7-8.2.4-11-1-13.6-6.3-2.6-5.2-2.7-21.1-.3-26.8 2.6-6 10.6-8.3 19.9-5.6zm-172.1-6C12.7 26.4 9.6 29.7 7.9 37c-1 4.2.4 10.2 3.3 14.1 2.1 2.8 2.1 2.9.3 7-1.8 3.8-1.8 4.4-.4 8.4l1.6 4.3-3.6 3.6c-3.3 3.3-3.6 4.1-3.5 9.1.3 11 4.9 13.8 22.9 13.9 18.8.1 23.6-2.6 24.3-13.7.4-5.7.1-6.6-2.2-9.4-3.1-3.7-5.7-4.6-19.1-6.9-13-2.1-15.7-3.5-15.3-7.7l.3-3.2 11-.6c18.6-1.1 21.9-3.8 22.1-17.8l.1-8.5 3.2-.8c3.6-1 4.1-2.6.9-3.2-4.8-1-30.5-1.4-34.7-.5zM36.2 31c4.5 1.3 5.8 3.4 5.8 9.4 0 5.8-2.2 8.2-8.5 9.2-7.3 1-13.6-.2-16.2-3.1-4.4-5-1.9-14.7 4-15.8 4.3-.8 11.2-.7 14.9.3zm-2.5 43.4c4.6.7 8.9 1.9 9.8 2.6 2.3 1.9 2 9.3-.6 11.6S24.2 91.9 18.5 90s-7-8.5-3-14.7c1.8-2.8 5.7-3 18.2-.9zM99.6 25c-10.5 2.7-13.9 8-14.4 22.8C84.7 60.6 86 66 91 71s11.3 6.5 23.3 5.6c8.9-.6 13.7-2.3 13.7-4.9 0-.9-3.3-1.2-12.8-1.2-17.8 0-20.3-1.2-22.1-10.9l-.8-4.4 12.6-.6c6.9-.4 14.1-1 16-1.4 5.2-1.1 7.6-5 7.6-12.7 0-7.4-2-10.9-7.8-13.8-4.2-2.1-15.6-3-21.1-1.7zm18.7 8.8c1.6 1.7 2.2 3.4 2.2 6.8 0 6.7-1.4 7.4-15.8 7.4H92.9l.6-4.8c1.3-9.2 5.6-12.4 15.8-12 5.4.3 7.2.8 9 2.6zm192.1 50.7c-.4.9-.2 2.1.3 2.6 1.4 1.4 18.2 8.5 22 9.3 2.9.7 3.3.5 3.9-1.8.3-1.4.4-3.1.2-3.7-.2-.7-5.1-2.5-10.9-4l-12.6-3.5c-1.6-.4-2.5-.1-2.9 1.1z"/></svg>